<svg xmlns="http://www.w3.org/2000/svg" xmlns:xlink="http://www.w3.org/1999/xlink" width="432" zoomAndPan="magnify" viewBox="0 0 324 238.499993" height="318" preserveAspectRatio="xMidYMid meet" version="1.0"><defs><filter x="0%" y="0%" width="100%" height="100%" id="2cacf4145d"><feColorMatrix values="0 0 0 0 1 0 0 0 0 1 0 0 0 0 1 0 0 0 1 0" color-interpolation-filters="sRGB"/></filter><g/><clipPath id="2f1d97cfa9"><path d="M 38.261719 19.25 L 132.679688 19.25 L 132.679688 140.515625 L 38.261719 140.515625 Z M 38.261719 19.25 " clip-rule="nonzero"/></clipPath><clipPath id="508b2e76f5"><path d="M 1.277344 19.25 L 132.273438 19.25 L 132.273438 99.957031 L 1.277344 99.957031 Z M 1.277344 19.25 " clip-rule="nonzero"/></clipPath><mask id="3ba7ae9bd5"><g filter="url(#2cacf4145d)"><rect x="-32.4" width="388.8" fill="#000000" y="-23.849999" height="286.199992" fill-opacity="0.3"/></g></mask><clipPath id="49b311e460"><rect x="0" width="34" y="0" height="58"/></clipPath><mask id="d2194e5dc6"><g filter="url(#2cacf4145d)"><rect x="-32.4" width="388.8" fill="#000000" y="-23.849999" height="286.199992" fill-opacity="0.5"/></g></mask><clipPath id="1fb1c9be93"><rect x="0" width="34" y="0" height="57"/></clipPath><mask id="a536881607"><g filter="url(#2cacf4145d)"><rect x="-32.4" width="388.8" fill="#000000" y="-23.849999" height="286.199992" fill-opacity="0.7"/></g></mask><clipPath id="143d518bab"><rect x="0" width="34" y="0" height="57"/></clipPath></defs><g clip-path="url(#2f1d97cfa9)"><path fill="#54a58a" d="M 38.261719 19.25 L 132.679688 19.25 L 132.679688 140.515625 L 38.261719 140.515625 Z M 38.261719 19.25 " fill-opacity="1" fill-rule="nonzero"/></g><g clip-path="url(#508b2e76f5)"><path fill="#040606" d="M 8.1875 44.078125 L 125.375 44.078125 C 127.539062 44.078125 129.296875 45.835938 129.296875 48.015625 L 129.296875 93.046875 C 129.296875 95.214844 127.539062 96.984375 125.375 96.984375 L 8.1875 96.984375 C 6.011719 96.984375 4.257812 95.214844 4.257812 93.046875 L 4.257812 48.015625 C 4.257812 45.835938 6.011719 44.078125 8.1875 44.078125 Z M 91.234375 19.261719 L 89.3125 19.390625 C 89.710938 25.015625 87.699219 30.550781 83.777344 34.617188 C 82.605469 35.839844 80.753906 36.144531 79.242188 35.363281 L 72.078125 31.660156 C 69.972656 30.5625 67.378906 31.390625 66.289062 33.511719 C 65.972656 34.117188 65.8125 34.792969 65.8125 35.480469 L 65.8125 41.09375 L 8.1875 41.09375 C 4.371094 41.09375 1.277344 44.195312 1.277344 48.015625 L 1.277344 93.046875 C 1.277344 96.871094 4.371094 99.957031 8.1875 99.957031 L 125.375 99.957031 C 129.179688 99.957031 132.273438 96.871094 132.273438 93.046875 L 132.273438 48.015625 C 132.273438 44.195312 129.179688 41.09375 125.375 41.09375 L 67.742188 41.09375 L 67.742188 35.480469 C 67.742188 34.164062 68.800781 33.101562 70.113281 33.101562 C 70.484375 33.101562 70.859375 33.195312 71.195312 33.371094 L 78.359375 37.074219 C 80.625 38.253906 83.394531 37.796875 85.160156 35.957031 C 89.453125 31.496094 91.664062 25.4375 91.234375 19.261719 " fill-opacity="1" fill-rule="nonzero"/></g><path fill="#040606" d="M 16.546875 48.574219 L 10.40625 48.574219 C 9.769531 48.574219 9.257812 49.101562 9.257812 49.730469 L 9.257812 54.039062 C 9.257812 54.679688 9.769531 55.195312 10.40625 55.195312 L 16.546875 55.195312 C 17.1875 55.195312 17.699219 54.679688 17.699219 54.039062 L 17.699219 49.730469 C 17.699219 49.101562 17.1875 48.574219 16.546875 48.574219 " fill-opacity="1" fill-rule="nonzero"/><path fill="#040606" d="M 30.15625 48.574219 L 24.015625 48.574219 C 23.375 48.574219 22.863281 49.101562 22.863281 49.730469 L 22.863281 54.039062 C 22.863281 54.679688 23.375 55.195312 24.015625 55.195312 L 30.15625 55.195312 C 30.792969 55.195312 31.304688 54.679688 31.304688 54.039062 L 31.304688 49.730469 C 31.304688 49.101562 30.792969 48.574219 30.15625 48.574219 " fill-opacity="1" fill-rule="nonzero"/><path fill="#040606" d="M 43.761719 48.574219 L 37.621094 48.574219 C 36.980469 48.574219 36.46875 49.101562 36.46875 49.730469 L 36.46875 54.039062 C 36.46875 54.679688 36.980469 55.195312 37.621094 55.195312 L 43.761719 55.195312 C 44.402344 55.195312 44.914062 54.679688 44.914062 54.039062 L 44.914062 49.730469 C 44.914062 49.101562 44.402344 48.574219 43.761719 48.574219 " fill-opacity="1" fill-rule="nonzero"/><path fill="#040606" d="M 57.367188 48.574219 L 51.226562 48.574219 C 50.585938 48.574219 50.074219 49.101562 50.074219 49.730469 L 50.074219 54.039062 C 50.074219 54.679688 50.585938 55.195312 51.226562 55.195312 L 57.367188 55.195312 C 58.007812 55.195312 58.519531 54.679688 58.519531 54.039062 L 58.519531 49.730469 C 58.519531 49.101562 58.007812 48.574219 57.367188 48.574219 " fill-opacity="1" fill-rule="nonzero"/><path fill="#040606" d="M 70.972656 48.574219 L 64.832031 48.574219 C 64.195312 48.574219 63.683594 49.101562 63.683594 49.730469 L 63.683594 54.039062 C 63.683594 54.679688 64.195312 55.195312 64.832031 55.195312 L 70.972656 55.195312 C 71.613281 55.195312 72.125 54.679688 72.125 54.039062 L 72.125 49.730469 C 72.125 49.101562 71.613281 48.574219 70.972656 48.574219 " fill-opacity="1" fill-rule="nonzero"/><path fill="#040606" d="M 84.582031 48.574219 L 78.441406 48.574219 C 77.800781 48.574219 77.289062 49.101562 77.289062 49.730469 L 77.289062 54.039062 C 77.289062 54.679688 77.800781 55.195312 78.441406 55.195312 L 84.582031 55.195312 C 85.21875 55.195312 85.730469 54.679688 85.730469 54.039062 L 85.730469 49.730469 C 85.730469 49.101562 85.21875 48.574219 84.582031 48.574219 " fill-opacity="1" fill-rule="nonzero"/><path fill="#040606" d="M 98.1875 48.574219 L 92.046875 48.574219 C 91.40625 48.574219 90.894531 49.101562 90.894531 49.730469 L 90.894531 54.039062 C 90.894531 54.679688 91.40625 55.195312 92.046875 55.195312 L 98.1875 55.195312 C 98.828125 55.195312 99.339844 54.679688 99.339844 54.039062 L 99.339844 49.730469 C 99.339844 49.101562 98.828125 48.574219 98.1875 48.574219 " fill-opacity="1" fill-rule="nonzero"/><path fill="#040606" d="M 111.792969 48.574219 L 105.652344 48.574219 C 105.011719 48.574219 104.5 49.101562 104.5 49.730469 L 104.5 54.039062 C 104.5 54.679688 105.011719 55.195312 105.652344 55.195312 L 111.792969 55.195312 C 112.433594 55.195312 112.945312 54.679688 112.945312 54.039062 L 112.945312 49.730469 C 112.945312 49.101562 112.433594 48.574219 111.792969 48.574219 " fill-opacity="1" fill-rule="nonzero"/><path fill="#040606" d="M 125.410156 48.574219 L 119.257812 48.574219 C 118.621094 48.574219 118.109375 49.101562 118.109375 49.730469 L 118.109375 54.039062 C 118.109375 54.679688 118.621094 55.195312 119.257812 55.195312 L 125.410156 55.195312 C 126.039062 55.195312 126.550781 54.679688 126.550781 54.039062 L 126.550781 49.730469 C 126.550781 49.101562 126.039062 48.574219 125.410156 48.574219 " fill-opacity="1" fill-rule="nonzero"/><path fill="#040606" d="M 21.78125 61.195312 L 10.40625 61.195312 C 9.769531 61.195312 9.257812 61.707031 9.257812 62.347656 L 9.257812 66.65625 C 9.257812 67.289062 9.769531 67.8125 10.40625 67.8125 L 21.78125 67.8125 C 22.421875 67.8125 22.933594 67.289062 22.933594 66.65625 L 22.933594 62.347656 C 22.933594 61.707031 22.421875 61.195312 21.78125 61.195312 " fill-opacity="1" fill-rule="nonzero"/><path fill="#040606" d="M 37.433594 61.195312 L 31.292969 61.195312 C 30.65625 61.195312 30.144531 61.707031 30.144531 62.347656 L 30.144531 66.65625 C 30.144531 67.289062 30.65625 67.8125 31.292969 67.8125 L 37.433594 67.8125 C 38.074219 67.8125 38.585938 67.289062 38.585938 66.65625 L 38.585938 62.347656 C 38.585938 61.707031 38.074219 61.195312 37.433594 61.195312 " fill-opacity="1" fill-rule="nonzero"/><path fill="#040606" d="M 50.902344 61.195312 L 44.75 61.195312 C 44.121094 61.195312 43.597656 61.707031 43.597656 62.347656 L 43.597656 66.65625 C 43.597656 67.289062 44.121094 67.8125 44.75 67.8125 L 50.902344 67.8125 C 51.53125 67.8125 52.054688 67.289062 52.054688 66.65625 L 52.054688 62.347656 C 52.054688 61.707031 51.53125 61.195312 50.902344 61.195312 " fill-opacity="1" fill-rule="nonzero"/><path fill="#040606" d="M 64.355469 61.195312 L 58.214844 61.195312 C 57.578125 61.195312 57.066406 61.707031 57.066406 62.347656 L 57.066406 66.65625 C 57.066406 67.289062 57.578125 67.8125 58.214844 67.8125 L 64.355469 67.8125 C 64.996094 67.8125 65.507812 67.289062 65.507812 66.65625 L 65.507812 62.347656 C 65.507812 61.707031 64.996094 61.195312 64.355469 61.195312 " fill-opacity="1" fill-rule="nonzero"/><path fill="#040606" d="M 77.824219 61.195312 L 71.683594 61.195312 C 71.042969 61.195312 70.53125 61.707031 70.53125 62.347656 L 70.53125 66.65625 C 70.53125 67.289062 71.042969 67.8125 71.683594 67.8125 L 77.824219 67.8125 C 78.464844 67.8125 78.976562 67.289062 78.976562 66.65625 L 78.976562 62.347656 C 78.976562 61.707031 78.464844 61.195312 77.824219 61.195312 " fill-opacity="1" fill-rule="nonzero"/><path fill="#040606" d="M 91.289062 61.195312 L 85.140625 61.195312 C 84.511719 61.195312 83.988281 61.707031 83.988281 62.347656 L 83.988281 66.65625 C 83.988281 67.289062 84.511719 67.8125 85.140625 67.8125 L 91.289062 67.8125 C 91.917969 67.8125 92.441406 67.289062 92.441406 66.65625 L 92.441406 62.347656 C 92.441406 61.707031 91.917969 61.195312 91.289062 61.195312 " fill-opacity="1" fill-rule="nonzero"/><path fill="#040606" d="M 104.757812 61.195312 L 98.605469 61.195312 C 97.964844 61.195312 97.453125 61.707031 97.453125 62.347656 L 97.453125 66.65625 C 97.453125 67.289062 97.964844 67.8125 98.605469 67.8125 L 104.757812 67.8125 C 105.386719 67.8125 105.898438 67.289062 105.898438 66.65625 L 105.898438 62.347656 C 105.898438 61.707031 105.386719 61.195312 104.757812 61.195312 " fill-opacity="1" fill-rule="nonzero"/><path fill="#040606" d="M 123.144531 61.195312 L 111.769531 61.195312 C 111.128906 61.195312 110.617188 61.707031 110.617188 62.347656 L 110.617188 66.65625 C 110.617188 67.289062 111.128906 67.8125 111.769531 67.8125 L 123.144531 67.8125 C 123.785156 67.8125 124.296875 67.289062 124.296875 66.65625 L 124.296875 62.347656 C 124.296875 61.707031 123.785156 61.195312 123.144531 61.195312 " fill-opacity="1" fill-rule="nonzero"/><path fill="#040606" d="M 16.546875 73.695312 L 10.40625 73.695312 C 9.769531 73.695312 9.257812 74.207031 9.257812 74.847656 L 9.257812 79.148438 C 9.257812 79.789062 9.769531 80.300781 10.40625 80.300781 L 16.546875 80.300781 C 17.1875 80.300781 17.699219 79.789062 17.699219 79.148438 L 17.699219 74.847656 C 17.699219 74.207031 17.1875 73.695312 16.546875 73.695312 " fill-opacity="1" fill-rule="nonzero"/><path fill="#040606" d="M 30.050781 73.695312 L 23.910156 73.695312 C 23.269531 73.695312 22.757812 74.207031 22.757812 74.847656 L 22.757812 79.148438 C 22.757812 79.789062 23.269531 80.300781 23.910156 80.300781 L 30.050781 80.300781 C 30.691406 80.300781 31.203125 79.789062 31.203125 79.148438 L 31.203125 74.847656 C 31.203125 74.207031 30.691406 73.695312 30.050781 73.695312 " fill-opacity="1" fill-rule="nonzero"/><path fill="#040606" d="M 43.5625 73.695312 L 37.410156 73.695312 C 36.773438 73.695312 36.261719 74.207031 36.261719 74.847656 L 36.261719 79.148438 C 36.261719 79.789062 36.773438 80.300781 37.410156 80.300781 L 43.5625 80.300781 C 44.191406 80.300781 44.703125 79.789062 44.703125 79.148438 L 44.703125 74.847656 C 44.703125 74.207031 44.191406 73.695312 43.5625 73.695312 " fill-opacity="1" fill-rule="nonzero"/><path fill="#040606" d="M 57.054688 73.695312 L 50.914062 73.695312 C 50.273438 73.695312 49.761719 74.207031 49.761719 74.847656 L 49.761719 79.148438 C 49.761719 79.789062 50.273438 80.300781 50.914062 80.300781 L 57.054688 80.300781 C 57.691406 80.300781 58.203125 79.789062 58.203125 79.148438 L 58.203125 74.847656 C 58.203125 74.207031 57.691406 73.695312 57.054688 73.695312 " fill-opacity="1" fill-rule="nonzero"/><path fill="#040606" d="M 70.566406 73.695312 L 64.414062 73.695312 C 63.777344 73.695312 63.265625 74.207031 63.265625 74.847656 L 63.265625 79.148438 C 63.265625 79.789062 63.777344 80.300781 64.414062 80.300781 L 70.566406 80.300781 C 71.195312 80.300781 71.707031 79.789062 71.707031 79.148438 L 71.707031 74.847656 C 71.707031 74.207031 71.195312 73.695312 70.566406 73.695312 " fill-opacity="1" fill-rule="nonzero"/><path fill="#040606" d="M 84.070312 73.695312 L 77.917969 73.695312 C 77.289062 73.695312 76.765625 74.207031 76.765625 74.847656 L 76.765625 79.148438 C 76.765625 79.789062 77.289062 80.300781 77.917969 80.300781 L 84.070312 80.300781 C 84.695312 80.300781 85.21875 79.789062 85.21875 79.148438 L 85.21875 74.847656 C 85.21875 74.207031 84.695312 73.695312 84.070312 73.695312 " fill-opacity="1" fill-rule="nonzero"/><path fill="#040606" d="M 97.570312 73.695312 L 91.417969 73.695312 C 90.789062 73.695312 90.265625 74.207031 90.265625 74.847656 L 90.265625 79.148438 C 90.265625 79.789062 90.789062 80.300781 91.417969 80.300781 L 97.570312 80.300781 C 98.199219 80.300781 98.722656 79.789062 98.722656 79.148438 L 98.722656 74.847656 C 98.722656 74.207031 98.199219 73.695312 97.570312 73.695312 " fill-opacity="1" fill-rule="nonzero"/><path fill="#040606" d="M 111.074219 73.695312 L 104.921875 73.695312 C 104.292969 73.695312 103.769531 74.207031 103.769531 74.847656 L 103.769531 79.148438 C 103.769531 79.789062 104.292969 80.300781 104.921875 80.300781 L 111.074219 80.300781 C 111.710938 80.300781 112.222656 79.789062 112.222656 79.148438 L 112.222656 74.847656 C 112.222656 74.207031 111.710938 73.695312 111.074219 73.695312 " fill-opacity="1" fill-rule="nonzero"/><path fill="#040606" d="M 124.574219 73.695312 L 118.421875 73.695312 C 117.792969 73.695312 117.28125 74.207031 117.28125 74.847656 L 117.28125 79.148438 C 117.28125 79.789062 117.792969 80.300781 118.421875 80.300781 L 124.574219 80.300781 C 125.214844 80.300781 125.726562 79.789062 125.726562 79.148438 L 125.726562 74.847656 C 125.726562 74.207031 125.214844 73.695312 124.574219 73.695312 " fill-opacity="1" fill-rule="nonzero"/><path fill="#040606" d="M 16.546875 86.382812 L 10.40625 86.382812 C 9.769531 86.382812 9.257812 86.894531 9.257812 87.535156 L 9.257812 91.847656 C 9.257812 92.476562 9.769531 93 10.40625 93 L 16.546875 93 C 17.1875 93 17.699219 92.476562 17.699219 91.847656 L 17.699219 87.535156 C 17.699219 86.894531 17.1875 86.382812 16.546875 86.382812 " fill-opacity="1" fill-rule="nonzero"/><path fill="#040606" d="M 30.550781 86.382812 L 24.398438 86.382812 C 23.757812 86.382812 23.246094 86.894531 23.246094 87.535156 L 23.246094 91.847656 C 23.246094 92.476562 23.757812 93 24.398438 93 L 30.550781 93 C 31.179688 93 31.703125 92.476562 31.703125 91.847656 L 31.703125 87.535156 C 31.703125 86.894531 31.179688 86.382812 30.550781 86.382812 " fill-opacity="1" fill-rule="nonzero"/><path fill="#040606" d="M 97.570312 86.382812 L 91.417969 86.382812 C 90.789062 86.382812 90.265625 86.894531 90.265625 87.535156 L 90.265625 91.847656 C 90.265625 92.476562 90.789062 93 91.417969 93 L 97.570312 93 C 98.199219 93 98.722656 92.476562 98.722656 91.847656 L 98.722656 87.535156 C 98.722656 86.894531 98.199219 86.382812 97.570312 86.382812 " fill-opacity="1" fill-rule="nonzero"/><path fill="#040606" d="M 111.074219 86.382812 L 104.921875 86.382812 C 104.292969 86.382812 103.769531 86.894531 103.769531 87.535156 L 103.769531 91.847656 C 103.769531 92.476562 104.292969 93 104.921875 93 L 111.074219 93 C 111.710938 93 112.222656 92.476562 112.222656 91.847656 L 112.222656 87.535156 C 112.222656 86.894531 111.710938 86.382812 111.074219 86.382812 " fill-opacity="1" fill-rule="nonzero"/><path fill="#040606" d="M 124.574219 86.382812 L 118.421875 86.382812 C 117.792969 86.382812 117.28125 86.894531 117.28125 87.535156 L 117.28125 91.847656 C 117.28125 92.476562 117.792969 93 118.421875 93 L 124.574219 93 C 125.214844 93 125.726562 92.476562 125.726562 91.847656 L 125.726562 87.535156 C 125.726562 86.894531 125.214844 86.382812 124.574219 86.382812 " fill-opacity="1" fill-rule="nonzero"/><path fill="#040606" d="M 83.523438 86.359375 L 38.039062 86.359375 C 37.398438 86.359375 36.886719 86.882812 36.886719 87.511719 L 36.886719 91.671875 C 36.886719 92.300781 37.398438 92.828125 38.039062 92.828125 L 83.523438 92.828125 C 84.160156 92.828125 84.671875 92.300781 84.671875 91.671875 L 84.671875 87.511719 C 84.671875 86.882812 84.160156 86.359375 83.523438 86.359375 " fill-opacity="1" fill-rule="nonzero"/><g fill="#000000" fill-opacity="1"><g transform="translate(71.132245, 140.38852)"><g><path d="M 31.714844 -37.921875 C 31.714844 -38.589844 31.492188 -38.808594 30.882812 -38.808594 L 6.210938 -38.808594 C 5.542969 -38.808594 5.324219 -38.589844 5.324219 -37.921875 L 5.324219 -0.886719 C 5.324219 -0.222656 5.542969 0 6.210938 0 L 30.882812 0 C 31.546875 0 31.714844 -0.222656 31.714844 -0.886719 L 31.714844 -2.9375 C 31.714844 -3.605469 31.546875 -3.824219 30.882812 -3.824219 L 9.703125 -3.824219 L 9.703125 -17.6875 L 29.882812 -17.6875 C 30.550781 -17.6875 30.769531 -17.90625 30.769531 -18.574219 L 30.769531 -20.625 C 30.769531 -21.289062 30.550781 -21.511719 29.882812 -21.511719 L 9.703125 -21.511719 L 9.703125 -34.984375 L 30.882812 -34.984375 C 31.492188 -34.984375 31.714844 -35.207031 31.714844 -35.871094 Z M 31.714844 -37.921875 "/></g></g></g><g fill="#000000" fill-opacity="1"><g transform="translate(106.281054, 140.38852)"><g><path d="M 20.847656 -28.832031 C 12.972656 -28.832031 10.421875 -24.117188 9.3125 -21.789062 L 8.648438 -27.332031 C 8.371094 -28 8.148438 -28.21875 7.707031 -28.21875 L 6.320312 -28.21875 C 5.710938 -28.21875 5.488281 -28 5.488281 -27.332031 L 5.488281 -0.886719 C 5.488281 -0.222656 5.710938 0 6.320312 0 L 8.816406 0 C 9.425781 0 9.648438 -0.222656 9.648438 -0.886719 L 9.648438 -14.527344 C 9.648438 -19.683594 13.085938 -24.726562 20.292969 -24.726562 C 20.957031 -24.726562 21.125 -24.894531 21.289062 -25.558594 L 21.621094 -28.054688 C 21.734375 -28.609375 21.621094 -28.832031 20.847656 -28.832031 Z M 20.847656 -28.832031 "/></g></g></g><g fill="#000000" fill-opacity="1"><g transform="translate(129.233116, 140.38852)"><g><path d="M 26.667969 0 C 27.277344 0 27.5 -0.222656 27.5 -0.886719 L 27.5 -15.523438 C 27.5 -24.671875 24.949219 -28.832031 15.636719 -28.832031 C 11.367188 -28.832031 6.765625 -28 6.097656 -27.832031 C 5.433594 -27.609375 5.265625 -27.332031 5.433594 -26.722656 L 5.875 -25.058594 C 5.988281 -24.503906 6.152344 -24.226562 6.597656 -24.226562 C 6.652344 -24.226562 6.820312 -24.226562 6.929688 -24.285156 C 9.039062 -24.671875 11.921875 -25.171875 15.46875 -25.171875 C 21.289062 -25.171875 23.339844 -22.621094 23.339844 -15.636719 C 20.515625 -16.800781 17.296875 -17.574219 14.359375 -17.574219 C 7.539062 -17.574219 2.992188 -14.636719 2.992188 -8.59375 C 2.992188 -2.660156 7.539062 0.609375 12.863281 0.609375 C 18.851562 0.609375 22.511719 -2.605469 24.007812 -4.65625 L 24.226562 -0.886719 C 24.394531 -0.222656 24.617188 0 25.058594 0 Z M 15.191406 -14.46875 C 18.351562 -14.46875 20.515625 -13.640625 23.339844 -12.476562 L 23.339844 -7.871094 C 21.566406 -5.265625 17.964844 -2.660156 14.136719 -2.660156 C 9.648438 -2.660156 7.152344 -5.15625 7.152344 -8.59375 C 7.152344 -12.363281 9.925781 -14.46875 15.191406 -14.46875 Z M 15.191406 -14.46875 "/></g></g></g><g fill="#000000" fill-opacity="1"><g transform="translate(160.667451, 140.38852)"><g><path d="M 5.488281 -0.886719 C 5.488281 -0.222656 5.710938 0 6.320312 0 L 8.816406 0 C 9.425781 0 9.648438 -0.222656 9.648438 -0.886719 L 9.648438 -14.859375 C 9.648438 -20.402344 12.75 -25.058594 17.574219 -25.058594 C 22.066406 -25.058594 25.394531 -21.84375 25.394531 -15.246094 L 25.394531 -0.886719 C 25.394531 -0.222656 25.613281 0 26.222656 0 L 28.71875 0 C 29.328125 0 29.550781 -0.222656 29.550781 -0.886719 L 29.550781 -16.355469 C 29.550781 -25.226562 24.503906 -28.832031 18.574219 -28.832031 C 13.140625 -28.832031 10.257812 -24.5625 9.09375 -22.34375 L 8.648438 -27.332031 C 8.371094 -28 8.148438 -28.21875 7.707031 -28.21875 L 6.320312 -28.21875 C 5.710938 -28.21875 5.488281 -28 5.488281 -27.332031 Z M 5.488281 -0.886719 "/></g></g></g><g fill="#000000" fill-opacity="1"><g transform="translate(192.110754, 147.585278)"><g><path d="M 58.605469 -29.828125 C 58.214844 -30.136719 57.875 -30.25 57.492188 -30.148438 C 57.203125 -30.070312 56.964844 -29.800781 56.757812 -29.433594 C 53.414062 -23.5 47.453125 -17.375 38.058594 -14.851562 C 22.523438 -10.675781 6.273438 -21.421875 2.203125 -36.574219 C -1.84375 -51.628906 6.808594 -69.167969 22.34375 -73.339844 C 31.738281 -75.863281 40.066406 -73.578125 45.496094 -70.203125 C 45.957031 -70.019531 46.292969 -69.90625 46.679688 -70.007812 C 46.964844 -70.085938 47.296875 -70.378906 47.507812 -70.746094 L 49.113281 -73.953125 C 49.605469 -74.804688 49.476562 -75.285156 48.625 -75.773438 C 40.839844 -80.261719 30.148438 -81.398438 20.847656 -78.902344 C 1.960938 -73.828125 -9.253906 -53.953125 -4.125 -34.875 C 1 -15.792969 20.664062 -4.214844 39.550781 -9.289062 C 48.851562 -11.789062 57.53125 -18.128906 62.019531 -25.914062 C 62.582031 -26.886719 62.453125 -27.367188 61.574219 -27.953125 Z M 58.605469 -29.828125 "/></g></g></g><g mask="url(#3ba7ae9bd5)"><g transform="matrix(1, 0, 0, 1, 198, 91)"><g clip-path="url(#49b311e460)"><g fill="#54a58a" fill-opacity="1"><g transform="translate(0.492213, 40.187892)"><g><path d="M 16.214844 -27.109375 C 8.601562 -27.109375 2.503906 -20.851562 2.503906 -13.242188 C 2.503906 -5.628906 8.601562 0.574219 16.214844 0.574219 C 23.824219 0.574219 29.921875 -5.628906 29.921875 -13.242188 C 29.921875 -20.851562 23.824219 -27.109375 16.214844 -27.109375 Z M 16.214844 -23.5625 C 21.6875 -23.5625 26.066406 -18.976562 26.066406 -13.242188 C 26.066406 -7.507812 21.6875 -2.917969 16.214844 -2.917969 C 10.792969 -2.917969 6.414062 -7.507812 6.414062 -13.242188 C 6.414062 -18.976562 10.792969 -23.5625 16.214844 -23.5625 Z M 16.214844 -23.5625 "/></g></g></g></g></g></g><g mask="url(#d2194e5dc6)"><g transform="matrix(1, 0, 0, 1, 204, 93)"><g clip-path="url(#1fb1c9be93)"><g fill="#54a58a" fill-opacity="1"><g transform="translate(1.250311, 39.4736)"><g><path d="M 16.214844 -27.109375 C 8.601562 -27.109375 2.503906 -20.851562 2.503906 -13.242188 C 2.503906 -5.628906 8.601562 0.574219 16.214844 0.574219 C 23.824219 0.574219 29.921875 -5.628906 29.921875 -13.242188 C 29.921875 -20.851562 23.824219 -27.109375 16.214844 -27.109375 Z M 16.214844 -23.5625 C 21.6875 -23.5625 26.066406 -18.976562 26.066406 -13.242188 C 26.066406 -7.507812 21.6875 -2.917969 16.214844 -2.917969 C 10.792969 -2.917969 6.414062 -7.507812 6.414062 -13.242188 C 6.414062 -18.976562 10.792969 -23.5625 16.214844 -23.5625 Z M 16.214844 -23.5625 "/></g></g></g></g></g></g><g mask="url(#a536881607)"><g transform="matrix(1, 0, 0, 1, 211, 93)"><g clip-path="url(#143d518bab)"><g fill="#54a58a" fill-opacity="1"><g transform="translate(1.119927, 39.464435)"><g><path d="M 16.214844 -27.109375 C 8.601562 -27.109375 2.503906 -20.851562 2.503906 -13.242188 C 2.503906 -5.628906 8.601562 0.574219 16.214844 0.574219 C 23.824219 0.574219 29.921875 -5.628906 29.921875 -13.242188 C 29.921875 -20.851562 23.824219 -27.109375 16.214844 -27.109375 Z M 16.214844 -23.5625 C 21.6875 -23.5625 26.066406 -18.976562 26.066406 -13.242188 C 26.066406 -7.507812 21.6875 -2.917969 16.214844 -2.917969 C 10.792969 -2.917969 6.414062 -7.507812 6.414062 -13.242188 C 6.414062 -18.976562 10.792969 -23.5625 16.214844 -23.5625 Z M 16.214844 -23.5625 "/></g></g></g></g></g></g><g fill="#54a58a" fill-opacity="1"><g transform="translate(217.956767, 128.942598)"><g><path d="M 16.214844 -27.109375 C 8.601562 -27.109375 2.503906 -20.851562 2.503906 -13.242188 C 2.503906 -5.628906 8.601562 0.574219 16.214844 0.574219 C 23.824219 0.574219 29.921875 -5.628906 29.921875 -13.242188 C 29.921875 -20.851562 23.824219 -27.109375 16.214844 -27.109375 Z M 16.214844 -23.5625 C 21.6875 -23.5625 26.066406 -18.976562 26.066406 -13.242188 C 26.066406 -7.507812 21.6875 -2.917969 16.214844 -2.917969 C 10.792969 -2.917969 6.414062 -7.507812 6.414062 -13.242188 C 6.414062 -18.976562 10.792969 -23.5625 16.214844 -23.5625 Z M 16.214844 -23.5625 "/></g></g></g></svg>