<svg xmlns="http://www.w3.org/2000/svg" xmlns:xlink="http://www.w3.org/1999/xlink" width="602" zoomAndPan="magnify" viewBox="0 0 451.5 306.749995" height="409" preserveAspectRatio="xMidYMid meet" version="1.0"><defs><filter x="0%" y="0%" width="100%" height="100%" id="ebba9e31c3"><feColorMatrix values="0 0 0 0 1 0 0 0 0 1 0 0 0 0 1 0 0 0 1 0" color-interpolation-filters="sRGB"/></filter><g/><clipPath id="62f38744a5"><path d="M 82.34375 46.917969 L 189.570312 46.917969 L 189.570312 184.636719 L 82.34375 184.636719 Z M 82.34375 46.917969 " clip-rule="nonzero"/></clipPath><clipPath id="456a1bfeec"><path d="M 0.597656 49.78125 L 131.105469 49.78125 L 131.105469 129.855469 L 0.597656 129.855469 Z M 0.597656 49.78125 " clip-rule="nonzero"/></clipPath><mask id="fbb99a1ad2"><g filter="url(#ebba9e31c3)"><rect x="-45.15" width="541.8" fill="#000000" y="-30.675" height="368.099994" fill-opacity="0.3"/></g></mask><clipPath id="c730ca0e78"><rect x="0" width="44" y="0" height="74"/></clipPath><mask id="e0d899d4e5"><g filter="url(#ebba9e31c3)"><rect x="-45.15" width="541.8" fill="#000000" y="-30.675" height="368.099994" fill-opacity="0.5"/></g></mask><clipPath id="e63935279c"><rect x="0" width="43" y="0" height="74"/></clipPath><mask id="4fa1d7ba54"><g filter="url(#ebba9e31c3)"><rect x="-45.15" width="541.8" fill="#000000" y="-30.675" height="368.099994" fill-opacity="0.7"/></g></mask><clipPath id="96bf499481"><rect x="0" width="43" y="0" height="74"/></clipPath></defs><g clip-path="url(#62f38744a5)"><path fill="#54a58a" d="M 82.34375 46.917969 L 189.570312 46.917969 L 189.570312 184.636719 L 82.34375 184.636719 Z M 82.34375 46.917969 " fill-opacity="1" fill-rule="nonzero"/></g><g clip-path="url(#456a1bfeec)"><path fill="#040606" d="M 7.480469 74.414062 L 124.234375 74.414062 C 126.386719 74.414062 128.136719 76.160156 128.136719 78.320312 L 128.136719 123 C 128.136719 125.152344 126.386719 126.90625 124.234375 126.90625 L 7.480469 126.90625 C 5.3125 126.90625 3.5625 125.152344 3.5625 123 L 3.5625 78.320312 C 3.5625 76.160156 5.3125 74.414062 7.480469 74.414062 Z M 90.214844 49.792969 L 88.304688 49.917969 C 88.699219 55.503906 86.695312 60.992188 82.789062 65.027344 C 81.621094 66.242188 79.777344 66.542969 78.269531 65.769531 L 71.132812 62.09375 C 69.035156 61.003906 66.453125 61.828125 65.363281 63.929688 C 65.050781 64.53125 64.890625 65.203125 64.890625 65.882812 L 64.890625 71.457031 L 7.480469 71.457031 C 3.679688 71.457031 0.597656 74.53125 0.597656 78.320312 L 0.597656 123 C 0.597656 126.792969 3.679688 129.855469 7.480469 129.855469 L 124.234375 129.855469 C 128.023438 129.855469 131.105469 126.792969 131.105469 123 L 131.105469 78.320312 C 131.105469 74.53125 128.023438 71.457031 124.234375 71.457031 L 66.8125 71.457031 L 66.8125 65.882812 C 66.8125 64.578125 67.867188 63.527344 69.175781 63.527344 C 69.546875 63.527344 69.917969 63.617188 70.253906 63.792969 L 77.390625 67.46875 C 79.648438 68.636719 82.40625 68.183594 84.167969 66.359375 C 88.445312 61.929688 90.644531 55.917969 90.214844 49.792969 " fill-opacity="1" fill-rule="nonzero"/></g><path fill="#040606" d="M 15.808594 78.878906 L 9.691406 78.878906 C 9.054688 78.878906 8.546875 79.398438 8.546875 80.019531 L 8.546875 84.296875 C 8.546875 84.933594 9.054688 85.441406 9.691406 85.441406 L 15.808594 85.441406 C 16.445312 85.441406 16.957031 84.933594 16.957031 84.296875 L 16.957031 80.019531 C 16.957031 79.398438 16.445312 78.878906 15.808594 78.878906 " fill-opacity="1" fill-rule="nonzero"/><path fill="#040606" d="M 29.367188 78.878906 L 23.25 78.878906 C 22.609375 78.878906 22.101562 79.398438 22.101562 80.019531 L 22.101562 84.296875 C 22.101562 84.933594 22.609375 85.441406 23.25 85.441406 L 29.367188 85.441406 C 30.003906 85.441406 30.511719 84.933594 30.511719 84.296875 L 30.511719 80.019531 C 30.511719 79.398438 30.003906 78.878906 29.367188 78.878906 " fill-opacity="1" fill-rule="nonzero"/><path fill="#040606" d="M 42.921875 78.878906 L 36.804688 78.878906 C 36.167969 78.878906 35.65625 79.398438 35.65625 80.019531 L 35.65625 84.296875 C 35.65625 84.933594 36.167969 85.441406 36.804688 85.441406 L 42.921875 85.441406 C 43.558594 85.441406 44.070312 84.933594 44.070312 84.296875 L 44.070312 80.019531 C 44.070312 79.398438 43.558594 78.878906 42.921875 78.878906 " fill-opacity="1" fill-rule="nonzero"/><path fill="#040606" d="M 56.476562 78.878906 L 50.359375 78.878906 C 49.722656 78.878906 49.210938 79.398438 49.210938 80.019531 L 49.210938 84.296875 C 49.210938 84.933594 49.722656 85.441406 50.359375 85.441406 L 56.476562 85.441406 C 57.113281 85.441406 57.625 84.933594 57.625 84.296875 L 57.625 80.019531 C 57.625 79.398438 57.113281 78.878906 56.476562 78.878906 " fill-opacity="1" fill-rule="nonzero"/><path fill="#040606" d="M 70.03125 78.878906 L 63.914062 78.878906 C 63.277344 78.878906 62.769531 79.398438 62.769531 80.019531 L 62.769531 84.296875 C 62.769531 84.933594 63.277344 85.441406 63.914062 85.441406 L 70.03125 85.441406 C 70.671875 85.441406 71.179688 84.933594 71.179688 84.296875 L 71.179688 80.019531 C 71.179688 79.398438 70.671875 78.878906 70.03125 78.878906 " fill-opacity="1" fill-rule="nonzero"/><path fill="#040606" d="M 83.589844 78.878906 L 77.472656 78.878906 C 76.835938 78.878906 76.324219 79.398438 76.324219 80.019531 L 76.324219 84.296875 C 76.324219 84.933594 76.835938 85.441406 77.472656 85.441406 L 83.589844 85.441406 C 84.226562 85.441406 84.734375 84.933594 84.734375 84.296875 L 84.734375 80.019531 C 84.734375 79.398438 84.226562 78.878906 83.589844 78.878906 " fill-opacity="1" fill-rule="nonzero"/><path fill="#040606" d="M 97.144531 78.878906 L 91.027344 78.878906 C 90.390625 78.878906 89.878906 79.398438 89.878906 80.019531 L 89.878906 84.296875 C 89.878906 84.933594 90.390625 85.441406 91.027344 85.441406 L 97.144531 85.441406 C 97.78125 85.441406 98.292969 84.933594 98.292969 84.296875 L 98.292969 80.019531 C 98.292969 79.398438 97.78125 78.878906 97.144531 78.878906 " fill-opacity="1" fill-rule="nonzero"/><path fill="#040606" d="M 110.699219 78.878906 L 104.582031 78.878906 C 103.945312 78.878906 103.4375 79.398438 103.4375 80.019531 L 103.4375 84.296875 C 103.4375 84.933594 103.945312 85.441406 104.582031 85.441406 L 110.699219 85.441406 C 111.335938 85.441406 111.847656 84.933594 111.847656 84.296875 L 111.847656 80.019531 C 111.847656 79.398438 111.335938 78.878906 110.699219 78.878906 " fill-opacity="1" fill-rule="nonzero"/><path fill="#040606" d="M 124.269531 78.878906 L 118.140625 78.878906 C 117.5 78.878906 116.992188 79.398438 116.992188 80.019531 L 116.992188 84.296875 C 116.992188 84.933594 117.5 85.441406 118.140625 85.441406 L 124.269531 85.441406 C 124.894531 85.441406 125.402344 84.933594 125.402344 84.296875 L 125.402344 80.019531 C 125.402344 79.398438 124.894531 78.878906 124.269531 78.878906 " fill-opacity="1" fill-rule="nonzero"/><path fill="#040606" d="M 21.023438 91.394531 L 9.691406 91.394531 C 9.054688 91.394531 8.546875 91.90625 8.546875 92.539062 L 8.546875 96.816406 C 8.546875 97.441406 9.054688 97.960938 9.691406 97.960938 L 21.023438 97.960938 C 21.660156 97.960938 22.171875 97.441406 22.171875 96.816406 L 22.171875 92.539062 C 22.171875 91.90625 21.660156 91.394531 21.023438 91.394531 " fill-opacity="1" fill-rule="nonzero"/><path fill="#040606" d="M 36.617188 91.394531 L 30.5 91.394531 C 29.863281 91.394531 29.355469 91.90625 29.355469 92.539062 L 29.355469 96.816406 C 29.355469 97.441406 29.863281 97.960938 30.5 97.960938 L 36.617188 97.960938 C 37.257812 97.960938 37.765625 97.441406 37.765625 96.816406 L 37.765625 92.539062 C 37.765625 91.90625 37.257812 91.394531 36.617188 91.394531 " fill-opacity="1" fill-rule="nonzero"/><path fill="#040606" d="M 50.035156 91.394531 L 43.90625 91.394531 C 43.28125 91.394531 42.757812 91.90625 42.757812 92.539062 L 42.757812 96.816406 C 42.757812 97.441406 43.28125 97.960938 43.90625 97.960938 L 50.035156 97.960938 C 50.660156 97.960938 51.183594 97.441406 51.183594 96.816406 L 51.183594 92.539062 C 51.183594 91.90625 50.660156 91.394531 50.035156 91.394531 " fill-opacity="1" fill-rule="nonzero"/><path fill="#040606" d="M 63.441406 91.394531 L 57.324219 91.394531 C 56.6875 91.394531 56.175781 91.90625 56.175781 92.539062 L 56.175781 96.816406 C 56.175781 97.441406 56.6875 97.960938 57.324219 97.960938 L 63.441406 97.960938 C 64.078125 97.960938 64.585938 97.441406 64.585938 96.816406 L 64.585938 92.539062 C 64.585938 91.90625 64.078125 91.394531 63.441406 91.394531 " fill-opacity="1" fill-rule="nonzero"/><path fill="#040606" d="M 76.855469 91.394531 L 70.738281 91.394531 C 70.101562 91.394531 69.59375 91.90625 69.59375 92.539062 L 69.59375 96.816406 C 69.59375 97.441406 70.101562 97.960938 70.738281 97.960938 L 76.855469 97.960938 C 77.496094 97.960938 78.003906 97.441406 78.003906 96.816406 L 78.003906 92.539062 C 78.003906 91.90625 77.496094 91.394531 76.855469 91.394531 " fill-opacity="1" fill-rule="nonzero"/><path fill="#040606" d="M 90.273438 91.394531 L 84.144531 91.394531 C 83.519531 91.394531 82.996094 91.90625 82.996094 92.539062 L 82.996094 96.816406 C 82.996094 97.441406 83.519531 97.960938 84.144531 97.960938 L 90.273438 97.960938 C 90.898438 97.960938 91.421875 97.441406 91.421875 96.816406 L 91.421875 92.539062 C 91.421875 91.90625 90.898438 91.394531 90.273438 91.394531 " fill-opacity="1" fill-rule="nonzero"/><path fill="#040606" d="M 103.691406 91.394531 L 97.5625 91.394531 C 96.925781 91.394531 96.414062 91.90625 96.414062 92.539062 L 96.414062 96.816406 C 96.414062 97.441406 96.925781 97.960938 97.5625 97.960938 L 103.691406 97.960938 C 104.316406 97.960938 104.828125 97.441406 104.828125 96.816406 L 104.828125 92.539062 C 104.828125 91.90625 104.316406 91.394531 103.691406 91.394531 " fill-opacity="1" fill-rule="nonzero"/><path fill="#040606" d="M 122.007812 91.394531 L 110.675781 91.394531 C 110.039062 91.394531 109.53125 91.90625 109.53125 92.539062 L 109.53125 96.816406 C 109.53125 97.441406 110.039062 97.960938 110.675781 97.960938 L 122.007812 97.960938 C 122.644531 97.960938 123.15625 97.441406 123.15625 96.816406 L 123.15625 92.539062 C 123.15625 91.90625 122.644531 91.394531 122.007812 91.394531 " fill-opacity="1" fill-rule="nonzero"/><path fill="#040606" d="M 15.808594 103.800781 L 9.691406 103.800781 C 9.054688 103.800781 8.546875 104.308594 8.546875 104.945312 L 8.546875 109.210938 C 8.546875 109.84375 9.054688 110.355469 9.691406 110.355469 L 15.808594 110.355469 C 16.445312 110.355469 16.957031 109.84375 16.957031 109.210938 L 16.957031 104.945312 C 16.957031 104.308594 16.445312 103.800781 15.808594 103.800781 " fill-opacity="1" fill-rule="nonzero"/><path fill="#040606" d="M 29.261719 103.800781 L 23.144531 103.800781 C 22.507812 103.800781 21.996094 104.308594 21.996094 104.945312 L 21.996094 109.210938 C 21.996094 109.84375 22.507812 110.355469 23.144531 110.355469 L 29.261719 110.355469 C 29.898438 110.355469 30.410156 109.84375 30.410156 109.210938 L 30.410156 104.945312 C 30.410156 104.308594 29.898438 103.800781 29.261719 103.800781 " fill-opacity="1" fill-rule="nonzero"/><path fill="#040606" d="M 42.722656 103.800781 L 36.59375 103.800781 C 35.957031 103.800781 35.449219 104.308594 35.449219 104.945312 L 35.449219 109.210938 C 35.449219 109.84375 35.957031 110.355469 36.59375 110.355469 L 42.722656 110.355469 C 43.351562 110.355469 43.859375 109.84375 43.859375 109.210938 L 43.859375 104.945312 C 43.859375 104.308594 43.351562 103.800781 42.722656 103.800781 " fill-opacity="1" fill-rule="nonzero"/><path fill="#040606" d="M 56.164062 103.800781 L 50.046875 103.800781 C 49.410156 103.800781 48.898438 104.308594 48.898438 104.945312 L 48.898438 109.210938 C 48.898438 109.84375 49.410156 110.355469 50.046875 110.355469 L 56.164062 110.355469 C 56.800781 110.355469 57.3125 109.84375 57.3125 109.210938 L 57.3125 104.945312 C 57.3125 104.308594 56.800781 103.800781 56.164062 103.800781 " fill-opacity="1" fill-rule="nonzero"/><path fill="#040606" d="M 69.628906 103.800781 L 63.5 103.800781 C 62.859375 103.800781 62.351562 104.308594 62.351562 104.945312 L 62.351562 109.210938 C 62.351562 109.84375 62.859375 110.355469 63.5 110.355469 L 69.628906 110.355469 C 70.253906 110.355469 70.761719 109.84375 70.761719 109.210938 L 70.761719 104.945312 C 70.761719 104.308594 70.253906 103.800781 69.628906 103.800781 " fill-opacity="1" fill-rule="nonzero"/><path fill="#040606" d="M 83.078125 103.800781 L 76.949219 103.800781 C 76.324219 103.800781 75.804688 104.308594 75.804688 104.945312 L 75.804688 109.210938 C 75.804688 109.84375 76.324219 110.355469 76.949219 110.355469 L 83.078125 110.355469 C 83.703125 110.355469 84.226562 109.84375 84.226562 109.210938 L 84.226562 104.945312 C 84.226562 104.308594 83.703125 103.800781 83.078125 103.800781 " fill-opacity="1" fill-rule="nonzero"/><path fill="#040606" d="M 96.53125 103.800781 L 90.402344 103.800781 C 89.777344 103.800781 89.253906 104.308594 89.253906 104.945312 L 89.253906 109.210938 C 89.253906 109.84375 89.777344 110.355469 90.402344 110.355469 L 96.53125 110.355469 C 97.15625 110.355469 97.675781 109.84375 97.675781 109.210938 L 97.675781 104.945312 C 97.675781 104.308594 97.15625 103.800781 96.53125 103.800781 " fill-opacity="1" fill-rule="nonzero"/><path fill="#040606" d="M 109.980469 103.800781 L 103.851562 103.800781 C 103.226562 103.800781 102.707031 104.308594 102.707031 104.945312 L 102.707031 109.210938 C 102.707031 109.84375 103.226562 110.355469 103.851562 110.355469 L 109.980469 110.355469 C 110.621094 110.355469 111.128906 109.84375 111.128906 109.210938 L 111.128906 104.945312 C 111.128906 104.308594 110.621094 103.800781 109.980469 103.800781 " fill-opacity="1" fill-rule="nonzero"/><path fill="#040606" d="M 123.433594 103.800781 L 117.304688 103.800781 C 116.679688 103.800781 116.167969 104.308594 116.167969 104.945312 L 116.167969 109.210938 C 116.167969 109.84375 116.679688 110.355469 117.304688 110.355469 L 123.433594 110.355469 C 124.070312 110.355469 124.582031 109.84375 124.582031 109.210938 L 124.582031 104.945312 C 124.582031 104.308594 124.070312 103.800781 123.433594 103.800781 " fill-opacity="1" fill-rule="nonzero"/><path fill="#040606" d="M 15.808594 116.386719 L 9.691406 116.386719 C 9.054688 116.386719 8.546875 116.898438 8.546875 117.53125 L 8.546875 121.808594 C 8.546875 122.433594 9.054688 122.953125 9.691406 122.953125 L 15.808594 122.953125 C 16.445312 122.953125 16.957031 122.433594 16.957031 121.808594 L 16.957031 117.53125 C 16.957031 116.898438 16.445312 116.386719 15.808594 116.386719 " fill-opacity="1" fill-rule="nonzero"/><path fill="#040606" d="M 29.757812 116.386719 L 23.628906 116.386719 C 22.992188 116.386719 22.484375 116.898438 22.484375 117.53125 L 22.484375 121.808594 C 22.484375 122.433594 22.992188 122.953125 23.628906 122.953125 L 29.757812 122.953125 C 30.386719 122.953125 30.90625 122.433594 30.90625 121.808594 L 30.90625 117.53125 C 30.90625 116.898438 30.386719 116.386719 29.757812 116.386719 " fill-opacity="1" fill-rule="nonzero"/><path fill="#040606" d="M 96.53125 116.386719 L 90.402344 116.386719 C 89.777344 116.386719 89.253906 116.898438 89.253906 117.53125 L 89.253906 121.808594 C 89.253906 122.433594 89.777344 122.953125 90.402344 122.953125 L 96.53125 122.953125 C 97.15625 122.953125 97.675781 122.433594 97.675781 121.808594 L 97.675781 117.53125 C 97.675781 116.898438 97.15625 116.386719 96.53125 116.386719 " fill-opacity="1" fill-rule="nonzero"/><path fill="#040606" d="M 109.980469 116.386719 L 103.851562 116.386719 C 103.226562 116.386719 102.707031 116.898438 102.707031 117.53125 L 102.707031 121.808594 C 102.707031 122.433594 103.226562 122.953125 103.851562 122.953125 L 109.980469 122.953125 C 110.621094 122.953125 111.128906 122.433594 111.128906 121.808594 L 111.128906 117.53125 C 111.128906 116.898438 110.621094 116.386719 109.980469 116.386719 " fill-opacity="1" fill-rule="nonzero"/><path fill="#040606" d="M 123.433594 116.386719 L 117.304688 116.386719 C 116.679688 116.386719 116.167969 116.898438 116.167969 117.53125 L 116.167969 121.808594 C 116.167969 122.433594 116.679688 122.953125 117.304688 122.953125 L 123.433594 122.953125 C 124.070312 122.953125 124.582031 122.433594 124.582031 121.808594 L 124.582031 117.53125 C 124.582031 116.898438 124.070312 116.386719 123.433594 116.386719 " fill-opacity="1" fill-rule="nonzero"/><path fill="#040606" d="M 82.535156 116.367188 L 37.222656 116.367188 C 36.582031 116.367188 36.074219 116.886719 36.074219 117.507812 L 36.074219 121.636719 C 36.074219 122.261719 36.582031 122.78125 37.222656 122.78125 L 82.535156 122.78125 C 83.171875 122.78125 83.679688 122.261719 83.679688 121.636719 L 83.679688 117.507812 C 83.679688 116.886719 83.171875 116.367188 82.535156 116.367188 " fill-opacity="1" fill-rule="nonzero"/><g fill="#000000" fill-opacity="1"><g transform="translate(125.724066, 180.721117)"><g><path d="M 40.898438 -48.90625 C 40.898438 -49.765625 40.613281 -50.050781 39.824219 -50.050781 L 8.007812 -50.050781 C 7.148438 -50.050781 6.863281 -49.765625 6.863281 -48.90625 L 6.863281 -1.144531 C 6.863281 -0.285156 7.148438 0 8.007812 0 L 39.824219 0 C 40.683594 0 40.898438 -0.285156 40.898438 -1.144531 L 40.898438 -3.789062 C 40.898438 -4.648438 40.683594 -4.933594 39.824219 -4.933594 L 12.511719 -4.933594 L 12.511719 -22.808594 L 38.539062 -22.808594 C 39.398438 -22.808594 39.683594 -23.09375 39.683594 -23.953125 L 39.683594 -26.597656 C 39.683594 -27.457031 39.398438 -27.742188 38.539062 -27.742188 L 12.511719 -27.742188 L 12.511719 -45.117188 L 39.824219 -45.117188 C 40.613281 -45.117188 40.898438 -45.402344 40.898438 -46.261719 Z M 40.898438 -48.90625 "/></g></g></g><g fill="#000000" fill-opacity="1"><g transform="translate(171.052938, 180.721117)"><g><path d="M 26.882812 -37.179688 C 16.730469 -37.179688 13.441406 -31.101562 12.011719 -28.101562 L 11.152344 -35.25 C 10.796875 -36.109375 10.511719 -36.394531 9.9375 -36.394531 L 8.152344 -36.394531 C 7.363281 -36.394531 7.078125 -36.109375 7.078125 -35.25 L 7.078125 -1.144531 C 7.078125 -0.285156 7.363281 0 8.152344 0 L 11.367188 0 C 12.15625 0 12.441406 -0.285156 12.441406 -1.144531 L 12.441406 -18.734375 C 12.441406 -25.382812 16.875 -31.890625 26.167969 -31.890625 C 27.027344 -31.890625 27.242188 -32.105469 27.457031 -32.960938 L 27.886719 -36.179688 C 28.027344 -36.894531 27.886719 -37.179688 26.882812 -37.179688 Z M 26.882812 -37.179688 "/></g></g></g><g fill="#000000" fill-opacity="1"><g transform="translate(200.65255, 180.721117)"><g><path d="M 34.390625 0 C 35.179688 0 35.464844 -0.285156 35.464844 -1.144531 L 35.464844 -20.019531 C 35.464844 -31.816406 32.175781 -37.179688 20.164062 -37.179688 C 14.65625 -37.179688 8.722656 -36.109375 7.863281 -35.894531 C 7.007812 -35.605469 6.792969 -35.25 7.007812 -34.464844 L 7.578125 -32.316406 C 7.722656 -31.601562 7.9375 -31.246094 8.507812 -31.246094 C 8.578125 -31.246094 8.792969 -31.246094 8.9375 -31.316406 C 11.65625 -31.816406 15.371094 -32.460938 19.949219 -32.460938 C 27.457031 -32.460938 30.101562 -29.171875 30.101562 -20.164062 C 26.457031 -21.664062 22.308594 -22.664062 18.519531 -22.664062 C 9.722656 -22.664062 3.859375 -18.875 3.859375 -11.082031 C 3.859375 -3.433594 9.722656 0.785156 16.589844 0.785156 C 24.308594 0.785156 29.027344 -3.359375 30.960938 -6.007812 L 31.246094 -1.144531 C 31.460938 -0.285156 31.746094 0 32.316406 0 Z M 19.589844 -18.660156 C 23.667969 -18.660156 26.457031 -17.589844 30.101562 -16.085938 L 30.101562 -10.152344 C 27.8125 -6.792969 23.167969 -3.433594 18.234375 -3.433594 C 12.441406 -3.433594 9.222656 -6.648438 9.222656 -11.082031 C 9.222656 -15.945312 12.796875 -18.660156 19.589844 -18.660156 Z M 19.589844 -18.660156 "/></g></g></g><g fill="#000000" fill-opacity="1"><g transform="translate(241.191134, 180.721117)"><g><path d="M 7.078125 -1.144531 C 7.078125 -0.285156 7.363281 0 8.152344 0 L 11.367188 0 C 12.15625 0 12.441406 -0.285156 12.441406 -1.144531 L 12.441406 -19.164062 C 12.441406 -26.3125 16.445312 -32.316406 22.664062 -32.316406 C 28.457031 -32.316406 32.746094 -28.171875 32.746094 -19.664062 L 32.746094 -1.144531 C 32.746094 -0.285156 33.035156 0 33.820312 0 L 37.039062 0 C 37.824219 0 38.109375 -0.285156 38.109375 -1.144531 L 38.109375 -21.09375 C 38.109375 -32.53125 31.601562 -37.179688 23.953125 -37.179688 C 16.945312 -37.179688 13.226562 -31.675781 11.726562 -28.816406 L 11.152344 -35.25 C 10.796875 -36.109375 10.511719 -36.394531 9.9375 -36.394531 L 8.152344 -36.394531 C 7.363281 -36.394531 7.078125 -36.109375 7.078125 -35.25 Z M 7.078125 -1.144531 "/></g></g></g><g fill="#000000" fill-opacity="1"><g transform="translate(281.740357, 190.002084)"><g><path d="M 75.578125 -38.46875 C 75.074219 -38.863281 74.636719 -39.011719 74.140625 -38.878906 C 73.769531 -38.777344 73.464844 -38.429688 73.195312 -37.960938 C 68.886719 -30.308594 61.199219 -22.40625 49.078125 -19.152344 C 29.046875 -13.769531 8.089844 -27.628906 2.839844 -47.167969 C -2.375 -66.578125 8.78125 -89.199219 28.816406 -94.582031 C 40.933594 -97.835938 51.667969 -94.886719 58.671875 -90.539062 C 59.265625 -90.300781 59.703125 -90.152344 60.199219 -90.285156 C 60.566406 -90.382812 60.996094 -90.765625 61.269531 -91.234375 L 63.339844 -95.371094 C 63.972656 -96.46875 63.804688 -97.085938 62.707031 -97.722656 C 52.667969 -103.507812 38.882812 -104.976562 26.886719 -101.753906 C 2.527344 -95.207031 -11.933594 -69.582031 -5.320312 -44.972656 C 1.289062 -20.367188 26.648438 -5.433594 51.007812 -11.980469 C 63 -15.203125 74.195312 -23.378906 79.984375 -33.421875 C 80.707031 -34.675781 80.539062 -35.292969 79.410156 -36.050781 Z M 75.578125 -38.46875 "/></g></g></g><g mask="url(#fbb99a1ad2)"><g transform="matrix(1, 0, 0, 1, 289, 118)"><g clip-path="url(#c730ca0e78)"><g fill="#54a58a" fill-opacity="1"><g transform="translate(0.971053, 50.855742)"><g><path d="M 20.910156 -34.960938 C 11.09375 -34.960938 3.226562 -26.890625 3.226562 -17.078125 C 3.226562 -7.261719 11.09375 0.738281 20.910156 0.738281 C 30.722656 0.738281 38.589844 -7.261719 38.589844 -17.078125 C 38.589844 -26.890625 30.722656 -34.960938 20.910156 -34.960938 Z M 20.910156 -30.386719 C 27.96875 -30.386719 33.613281 -24.472656 33.613281 -17.078125 C 33.613281 -9.679688 27.96875 -3.765625 20.910156 -3.765625 C 13.917969 -3.765625 8.269531 -9.679688 8.269531 -17.078125 C 8.269531 -24.472656 13.917969 -30.386719 20.910156 -30.386719 Z M 20.910156 -30.386719 "/></g></g></g></g></g></g><g mask="url(#e0d899d4e5)"><g transform="matrix(1, 0, 0, 1, 298, 119)"><g clip-path="url(#e63935279c)"><g fill="#54a58a" fill-opacity="1"><g transform="translate(0.68645, 51.513808)"><g><path d="M 20.910156 -34.960938 C 11.09375 -34.960938 3.226562 -26.890625 3.226562 -17.078125 C 3.226562 -7.261719 11.09375 0.738281 20.910156 0.738281 C 30.722656 0.738281 38.589844 -7.261719 38.589844 -17.078125 C 38.589844 -26.890625 30.722656 -34.960938 20.910156 -34.960938 Z M 20.910156 -30.386719 C 27.96875 -30.386719 33.613281 -24.472656 33.613281 -17.078125 C 33.613281 -9.679688 27.96875 -3.765625 20.910156 -3.765625 C 13.917969 -3.765625 8.269531 -9.679688 8.269531 -17.078125 C 8.269531 -24.472656 13.917969 -30.386719 20.910156 -30.386719 Z M 20.910156 -30.386719 "/></g></g></g></g></g></g><g mask="url(#4fa1d7ba54)"><g transform="matrix(1, 0, 0, 1, 307, 119)"><g clip-path="url(#96bf499481)"><g fill="#54a58a" fill-opacity="1"><g transform="translate(0.545682, 51.502014)"><g><path d="M 20.910156 -34.960938 C 11.09375 -34.960938 3.226562 -26.890625 3.226562 -17.078125 C 3.226562 -7.261719 11.09375 0.738281 20.910156 0.738281 C 30.722656 0.738281 38.589844 -7.261719 38.589844 -17.078125 C 38.589844 -26.890625 30.722656 -34.960938 20.910156 -34.960938 Z M 20.910156 -30.386719 C 27.96875 -30.386719 33.613281 -24.472656 33.613281 -17.078125 C 33.613281 -9.679688 27.96875 -3.765625 20.910156 -3.765625 C 13.917969 -3.765625 8.269531 -9.679688 8.269531 -17.078125 C 8.269531 -24.472656 13.917969 -30.386719 20.910156 -30.386719 Z M 20.910156 -30.386719 "/></g></g></g></g></g></g><g fill="#54a58a" fill-opacity="1"><g transform="translate(315.073028, 165.960132)"><g><path d="M 20.910156 -34.960938 C 11.09375 -34.960938 3.226562 -26.890625 3.226562 -17.078125 C 3.226562 -7.261719 11.09375 0.738281 20.910156 0.738281 C 30.722656 0.738281 38.589844 -7.261719 38.589844 -17.078125 C 38.589844 -26.890625 30.722656 -34.960938 20.910156 -34.960938 Z M 20.910156 -30.386719 C 27.96875 -30.386719 33.613281 -24.472656 33.613281 -17.078125 C 33.613281 -9.679688 27.96875 -3.765625 20.910156 -3.765625 C 13.917969 -3.765625 8.269531 -9.679688 8.269531 -17.078125 C 8.269531 -24.472656 13.917969 -30.386719 20.910156 -30.386719 Z M 20.910156 -30.386719 "/></g></g></g></svg>