<svg xmlns="http://www.w3.org/2000/svg" xmlns:xlink="http://www.w3.org/1999/xlink" width="601" zoomAndPan="magnify" viewBox="0 0 450.75 306.749988" height="409" preserveAspectRatio="xMidYMid meet" version="1.0"><defs><filter x="0%" y="0%" width="100%" height="100%" id="093a50d1a9"><feColorMatrix values="0 0 0 0 1 0 0 0 0 1 0 0 0 0 1 0 0 0 1 0" color-interpolation-filters="sRGB"/></filter><g/><clipPath id="5d559d6ae5"><path d="M 70.191406 119.535156 L 177.394531 119.535156 L 177.394531 257.214844 L 70.191406 257.214844 Z M 70.191406 119.535156 " clip-rule="nonzero"/></clipPath><clipPath id="f06bbda2d4"><path d="M 0.433594 170.871094 L 130.910156 170.871094 L 130.910156 250.976562 L 0.433594 250.976562 Z M 0.433594 170.871094 " clip-rule="nonzero"/></clipPath><mask id="ebda618487"><g filter="url(#093a50d1a9)"><rect x="-45.075" width="540.9" fill="#000000" y="-30.674999" height="368.099986" fill-opacity="0.3"/></g></mask><clipPath id="ad24b58472"><rect x="0" width="43" y="0" height="74"/></clipPath><mask id="592244209d"><g filter="url(#093a50d1a9)"><rect x="-45.075" width="540.9" fill="#000000" y="-30.674999" height="368.099986" fill-opacity="0.5"/></g></mask><clipPath id="459ba25385"><rect x="0" width="44" y="0" height="73"/></clipPath><mask id="c3619abd84"><g filter="url(#093a50d1a9)"><rect x="-45.075" width="540.9" fill="#000000" y="-30.674999" height="368.099986" fill-opacity="0.7"/></g></mask><clipPath id="acb4a189a2"><rect x="0" width="44" y="0" height="73"/></clipPath></defs><g clip-path="url(#5d559d6ae5)"><path fill="#54a58a" d="M 70.191406 119.535156 L 177.394531 119.535156 L 177.394531 257.214844 L 70.191406 257.214844 Z M 70.191406 119.535156 " fill-opacity="1" fill-rule="nonzero"/></g><g clip-path="url(#f06bbda2d4)"><path fill="#040606" d="M 7.316406 195.511719 L 124.042969 195.511719 C 126.195312 195.511719 127.945312 197.257812 127.945312 199.421875 L 127.945312 244.117188 C 127.945312 246.269531 126.195312 248.027344 124.042969 248.027344 L 7.316406 248.027344 C 5.148438 248.027344 3.398438 246.269531 3.398438 244.117188 L 3.398438 199.421875 C 3.398438 197.257812 5.148438 195.511719 7.316406 195.511719 Z M 90.03125 170.882812 L 88.121094 171.007812 C 88.515625 176.59375 86.511719 182.085938 82.609375 186.121094 C 81.4375 187.335938 79.597656 187.636719 78.089844 186.863281 L 70.953125 183.1875 C 68.859375 182.097656 66.273438 182.917969 65.1875 185.023438 C 64.875 185.625 64.710938 186.296875 64.710938 186.980469 L 64.710938 192.554688 L 7.316406 192.554688 C 3.515625 192.554688 0.433594 195.628906 0.433594 199.421875 L 0.433594 244.117188 C 0.433594 247.910156 3.515625 250.976562 7.316406 250.976562 L 124.042969 250.976562 C 127.828125 250.976562 130.910156 247.910156 130.910156 244.117188 L 130.910156 199.421875 C 130.910156 195.628906 127.828125 192.554688 124.042969 192.554688 L 66.632812 192.554688 L 66.632812 186.980469 C 66.632812 185.671875 67.6875 184.621094 68.996094 184.621094 C 69.367188 184.621094 69.738281 184.710938 70.074219 184.886719 L 77.210938 188.5625 C 79.46875 189.730469 82.226562 189.28125 83.984375 187.453125 C 88.261719 183.023438 90.460938 177.011719 90.03125 170.882812 " fill-opacity="1" fill-rule="nonzero"/></g><path fill="#040606" d="M 15.644531 199.976562 L 9.527344 199.976562 C 8.890625 199.976562 8.382812 200.496094 8.382812 201.121094 L 8.382812 205.402344 C 8.382812 206.035156 8.890625 206.546875 9.527344 206.546875 L 15.644531 206.546875 C 16.28125 206.546875 16.789062 206.035156 16.789062 205.402344 L 16.789062 201.121094 C 16.789062 200.496094 16.28125 199.976562 15.644531 199.976562 " fill-opacity="1" fill-rule="nonzero"/><path fill="#040606" d="M 29.195312 199.976562 L 23.082031 199.976562 C 22.441406 199.976562 21.933594 200.496094 21.933594 201.121094 L 21.933594 205.402344 C 21.933594 206.035156 22.441406 206.546875 23.082031 206.546875 L 29.195312 206.546875 C 29.832031 206.546875 30.34375 206.035156 30.34375 205.402344 L 30.34375 201.121094 C 30.34375 200.496094 29.832031 199.976562 29.195312 199.976562 " fill-opacity="1" fill-rule="nonzero"/><path fill="#040606" d="M 42.75 199.976562 L 36.632812 199.976562 C 35.996094 199.976562 35.484375 200.496094 35.484375 201.121094 L 35.484375 205.402344 C 35.484375 206.035156 35.996094 206.546875 36.632812 206.546875 L 42.75 206.546875 C 43.386719 206.546875 43.894531 206.035156 43.894531 205.402344 L 43.894531 201.121094 C 43.894531 200.496094 43.386719 199.976562 42.75 199.976562 " fill-opacity="1" fill-rule="nonzero"/><path fill="#040606" d="M 56.300781 199.976562 L 50.183594 199.976562 C 49.546875 199.976562 49.039062 200.496094 49.039062 201.121094 L 49.039062 205.402344 C 49.039062 206.035156 49.546875 206.546875 50.183594 206.546875 L 56.300781 206.546875 C 56.9375 206.546875 57.449219 206.035156 57.449219 205.402344 L 57.449219 201.121094 C 57.449219 200.496094 56.9375 199.976562 56.300781 199.976562 " fill-opacity="1" fill-rule="nonzero"/><path fill="#040606" d="M 69.855469 199.976562 L 63.738281 199.976562 C 63.101562 199.976562 62.589844 200.496094 62.589844 201.121094 L 62.589844 205.402344 C 62.589844 206.035156 63.101562 206.546875 63.738281 206.546875 L 69.855469 206.546875 C 70.492188 206.546875 71 206.035156 71 205.402344 L 71 201.121094 C 71 200.496094 70.492188 199.976562 69.855469 199.976562 " fill-opacity="1" fill-rule="nonzero"/><path fill="#040606" d="M 83.40625 199.976562 L 77.289062 199.976562 C 76.652344 199.976562 76.144531 200.496094 76.144531 201.121094 L 76.144531 205.402344 C 76.144531 206.035156 76.652344 206.546875 77.289062 206.546875 L 83.40625 206.546875 C 84.042969 206.546875 84.554688 206.035156 84.554688 205.402344 L 84.554688 201.121094 C 84.554688 200.496094 84.042969 199.976562 83.40625 199.976562 " fill-opacity="1" fill-rule="nonzero"/><path fill="#040606" d="M 96.960938 199.976562 L 90.84375 199.976562 C 90.207031 199.976562 89.695312 200.496094 89.695312 201.121094 L 89.695312 205.402344 C 89.695312 206.035156 90.207031 206.546875 90.84375 206.546875 L 96.960938 206.546875 C 97.597656 206.546875 98.105469 206.035156 98.105469 205.402344 L 98.105469 201.121094 C 98.105469 200.496094 97.597656 199.976562 96.960938 199.976562 " fill-opacity="1" fill-rule="nonzero"/><path fill="#040606" d="M 110.511719 199.976562 L 104.394531 199.976562 C 103.757812 199.976562 103.25 200.496094 103.25 201.121094 L 103.25 205.402344 C 103.25 206.035156 103.757812 206.546875 104.394531 206.546875 L 110.511719 206.546875 C 111.148438 206.546875 111.660156 206.035156 111.660156 205.402344 L 111.660156 201.121094 C 111.660156 200.496094 111.148438 199.976562 110.511719 199.976562 " fill-opacity="1" fill-rule="nonzero"/><path fill="#040606" d="M 124.078125 199.976562 L 117.949219 199.976562 C 117.3125 199.976562 116.800781 200.496094 116.800781 201.121094 L 116.800781 205.402344 C 116.800781 206.035156 117.3125 206.546875 117.949219 206.546875 L 124.078125 206.546875 C 124.703125 206.546875 125.210938 206.035156 125.210938 205.402344 L 125.210938 201.121094 C 125.210938 200.496094 124.703125 199.976562 124.078125 199.976562 " fill-opacity="1" fill-rule="nonzero"/><path fill="#040606" d="M 20.855469 212.5 L 9.527344 212.5 C 8.890625 212.5 8.382812 213.011719 8.382812 213.644531 L 8.382812 217.925781 C 8.382812 218.550781 8.890625 219.070312 9.527344 219.070312 L 20.855469 219.070312 C 21.492188 219.070312 22.003906 218.550781 22.003906 217.925781 L 22.003906 213.644531 C 22.003906 213.011719 21.492188 212.5 20.855469 212.5 " fill-opacity="1" fill-rule="nonzero"/><path fill="#040606" d="M 36.449219 212.5 L 30.332031 212.5 C 29.695312 212.5 29.183594 213.011719 29.183594 213.644531 L 29.183594 217.925781 C 29.183594 218.550781 29.695312 219.070312 30.332031 219.070312 L 36.449219 219.070312 C 37.085938 219.070312 37.59375 218.550781 37.59375 217.925781 L 37.59375 213.644531 C 37.59375 213.011719 37.085938 212.5 36.449219 212.5 " fill-opacity="1" fill-rule="nonzero"/><path fill="#040606" d="M 49.859375 212.5 L 43.734375 212.5 C 43.109375 212.5 42.585938 213.011719 42.585938 213.644531 L 42.585938 217.925781 C 42.585938 218.550781 43.109375 219.070312 43.734375 219.070312 L 49.859375 219.070312 C 50.488281 219.070312 51.007812 218.550781 51.007812 217.925781 L 51.007812 213.644531 C 51.007812 213.011719 50.488281 212.5 49.859375 212.5 " fill-opacity="1" fill-rule="nonzero"/><path fill="#040606" d="M 63.261719 212.5 L 57.148438 212.5 C 56.511719 212.5 56 213.011719 56 213.644531 L 56 217.925781 C 56 218.550781 56.511719 219.070312 57.148438 219.070312 L 63.261719 219.070312 C 63.898438 219.070312 64.410156 218.550781 64.410156 217.925781 L 64.410156 213.644531 C 64.410156 213.011719 63.898438 212.5 63.261719 212.5 " fill-opacity="1" fill-rule="nonzero"/><path fill="#040606" d="M 76.675781 212.5 L 70.5625 212.5 C 69.921875 212.5 69.414062 213.011719 69.414062 213.644531 L 69.414062 217.925781 C 69.414062 218.550781 69.921875 219.070312 70.5625 219.070312 L 76.675781 219.070312 C 77.3125 219.070312 77.824219 218.550781 77.824219 217.925781 L 77.824219 213.644531 C 77.824219 213.011719 77.3125 212.5 76.675781 212.5 " fill-opacity="1" fill-rule="nonzero"/><path fill="#040606" d="M 90.089844 212.5 L 83.960938 212.5 C 83.335938 212.5 82.816406 213.011719 82.816406 213.644531 L 82.816406 217.925781 C 82.816406 218.550781 83.335938 219.070312 83.960938 219.070312 L 90.089844 219.070312 C 90.714844 219.070312 91.238281 218.550781 91.238281 217.925781 L 91.238281 213.644531 C 91.238281 213.011719 90.714844 212.5 90.089844 212.5 " fill-opacity="1" fill-rule="nonzero"/><path fill="#040606" d="M 103.503906 212.5 L 97.375 212.5 C 96.738281 212.5 96.230469 213.011719 96.230469 213.644531 L 96.230469 217.925781 C 96.230469 218.550781 96.738281 219.070312 97.375 219.070312 L 103.503906 219.070312 C 104.128906 219.070312 104.640625 218.550781 104.640625 217.925781 L 104.640625 213.644531 C 104.640625 213.011719 104.128906 212.5 103.503906 212.5 " fill-opacity="1" fill-rule="nonzero"/><path fill="#040606" d="M 121.816406 212.5 L 110.488281 212.5 C 109.851562 212.5 109.34375 213.011719 109.34375 213.644531 L 109.34375 217.925781 C 109.34375 218.550781 109.851562 219.070312 110.488281 219.070312 L 121.816406 219.070312 C 122.453125 219.070312 122.964844 218.550781 122.964844 217.925781 L 122.964844 213.644531 C 122.964844 213.011719 122.453125 212.5 121.816406 212.5 " fill-opacity="1" fill-rule="nonzero"/><path fill="#040606" d="M 15.644531 224.910156 L 9.527344 224.910156 C 8.890625 224.910156 8.382812 225.417969 8.382812 226.054688 L 8.382812 230.320312 C 8.382812 230.957031 8.890625 231.46875 9.527344 231.46875 L 15.644531 231.46875 C 16.28125 231.46875 16.789062 230.957031 16.789062 230.320312 L 16.789062 226.054688 C 16.789062 225.417969 16.28125 224.910156 15.644531 224.910156 " fill-opacity="1" fill-rule="nonzero"/><path fill="#040606" d="M 29.09375 224.910156 L 22.976562 224.910156 C 22.339844 224.910156 21.828125 225.417969 21.828125 226.054688 L 21.828125 230.320312 C 21.828125 230.957031 22.339844 231.46875 22.976562 231.46875 L 29.09375 231.46875 C 29.730469 231.46875 30.238281 230.957031 30.238281 230.320312 L 30.238281 226.054688 C 30.238281 225.417969 29.730469 224.910156 29.09375 224.910156 " fill-opacity="1" fill-rule="nonzero"/><path fill="#040606" d="M 42.550781 224.910156 L 36.425781 224.910156 C 35.789062 224.910156 35.277344 225.417969 35.277344 226.054688 L 35.277344 230.320312 C 35.277344 230.957031 35.789062 231.46875 36.425781 231.46875 L 42.550781 231.46875 C 43.175781 231.46875 43.6875 230.957031 43.6875 230.320312 L 43.6875 226.054688 C 43.6875 225.417969 43.175781 224.910156 42.550781 224.910156 " fill-opacity="1" fill-rule="nonzero"/><path fill="#040606" d="M 55.988281 224.910156 L 49.871094 224.910156 C 49.234375 224.910156 48.726562 225.417969 48.726562 226.054688 L 48.726562 230.320312 C 48.726562 230.957031 49.234375 231.46875 49.871094 231.46875 L 55.988281 231.46875 C 56.625 231.46875 57.136719 230.957031 57.136719 230.320312 L 57.136719 226.054688 C 57.136719 225.417969 56.625 224.910156 55.988281 224.910156 " fill-opacity="1" fill-rule="nonzero"/><path fill="#040606" d="M 69.449219 224.910156 L 63.320312 224.910156 C 62.683594 224.910156 62.175781 225.417969 62.175781 226.054688 L 62.175781 230.320312 C 62.175781 230.957031 62.683594 231.46875 63.320312 231.46875 L 69.449219 231.46875 C 70.074219 231.46875 70.585938 230.957031 70.585938 230.320312 L 70.585938 226.054688 C 70.585938 225.417969 70.074219 224.910156 69.449219 224.910156 " fill-opacity="1" fill-rule="nonzero"/><path fill="#040606" d="M 82.898438 224.910156 L 76.769531 224.910156 C 76.144531 224.910156 75.621094 225.417969 75.621094 226.054688 L 75.621094 230.320312 C 75.621094 230.957031 76.144531 231.46875 76.769531 231.46875 L 82.898438 231.46875 C 83.523438 231.46875 84.042969 230.957031 84.042969 230.320312 L 84.042969 226.054688 C 84.042969 225.417969 83.523438 224.910156 82.898438 224.910156 " fill-opacity="1" fill-rule="nonzero"/><path fill="#040606" d="M 96.34375 224.910156 L 90.21875 224.910156 C 89.59375 224.910156 89.070312 225.417969 89.070312 226.054688 L 89.070312 230.320312 C 89.070312 230.957031 89.59375 231.46875 90.21875 231.46875 L 96.34375 231.46875 C 96.972656 231.46875 97.492188 230.957031 97.492188 230.320312 L 97.492188 226.054688 C 97.492188 225.417969 96.972656 224.910156 96.34375 224.910156 " fill-opacity="1" fill-rule="nonzero"/><path fill="#040606" d="M 109.792969 224.910156 L 103.667969 224.910156 C 103.039062 224.910156 102.519531 225.417969 102.519531 226.054688 L 102.519531 230.320312 C 102.519531 230.957031 103.039062 231.46875 103.667969 231.46875 L 109.792969 231.46875 C 110.429688 231.46875 110.941406 230.957031 110.941406 230.320312 L 110.941406 226.054688 C 110.941406 225.417969 110.429688 224.910156 109.792969 224.910156 " fill-opacity="1" fill-rule="nonzero"/><path fill="#040606" d="M 123.242188 224.910156 L 117.113281 224.910156 C 116.488281 224.910156 115.980469 225.417969 115.980469 226.054688 L 115.980469 230.320312 C 115.980469 230.957031 116.488281 231.46875 117.113281 231.46875 L 123.242188 231.46875 C 123.878906 231.46875 124.390625 230.957031 124.390625 230.320312 L 124.390625 226.054688 C 124.390625 225.417969 123.878906 224.910156 123.242188 224.910156 " fill-opacity="1" fill-rule="nonzero"/><path fill="#040606" d="M 15.644531 237.503906 L 9.527344 237.503906 C 8.890625 237.503906 8.382812 238.011719 8.382812 238.648438 L 8.382812 242.925781 C 8.382812 243.550781 8.890625 244.070312 9.527344 244.070312 L 15.644531 244.070312 C 16.28125 244.070312 16.789062 243.550781 16.789062 242.925781 L 16.789062 238.648438 C 16.789062 238.011719 16.28125 237.503906 15.644531 237.503906 " fill-opacity="1" fill-rule="nonzero"/><path fill="#040606" d="M 29.589844 237.503906 L 23.460938 237.503906 C 22.824219 237.503906 22.316406 238.011719 22.316406 238.648438 L 22.316406 242.925781 C 22.316406 243.550781 22.824219 244.070312 23.460938 244.070312 L 29.589844 244.070312 C 30.214844 244.070312 30.738281 243.550781 30.738281 242.925781 L 30.738281 238.648438 C 30.738281 238.011719 30.214844 237.503906 29.589844 237.503906 " fill-opacity="1" fill-rule="nonzero"/><path fill="#040606" d="M 96.34375 237.503906 L 90.21875 237.503906 C 89.59375 237.503906 89.070312 238.011719 89.070312 238.648438 L 89.070312 242.925781 C 89.070312 243.550781 89.59375 244.070312 90.21875 244.070312 L 96.34375 244.070312 C 96.972656 244.070312 97.492188 243.550781 97.492188 242.925781 L 97.492188 238.648438 C 97.492188 238.011719 96.972656 237.503906 96.34375 237.503906 " fill-opacity="1" fill-rule="nonzero"/><path fill="#040606" d="M 109.792969 237.503906 L 103.667969 237.503906 C 103.039062 237.503906 102.519531 238.011719 102.519531 238.648438 L 102.519531 242.925781 C 102.519531 243.550781 103.039062 244.070312 103.667969 244.070312 L 109.792969 244.070312 C 110.429688 244.070312 110.941406 243.550781 110.941406 242.925781 L 110.941406 238.648438 C 110.941406 238.011719 110.429688 237.503906 109.792969 237.503906 " fill-opacity="1" fill-rule="nonzero"/><path fill="#040606" d="M 123.242188 237.503906 L 117.113281 237.503906 C 116.488281 237.503906 115.980469 238.011719 115.980469 238.648438 L 115.980469 242.925781 C 115.980469 243.550781 116.488281 244.070312 117.113281 244.070312 L 123.242188 244.070312 C 123.878906 244.070312 124.390625 243.550781 124.390625 242.925781 L 124.390625 238.648438 C 124.390625 238.011719 123.878906 237.503906 123.242188 237.503906 " fill-opacity="1" fill-rule="nonzero"/><path fill="#040606" d="M 82.351562 237.480469 L 37.050781 237.480469 C 36.414062 237.480469 35.902344 238 35.902344 238.625 L 35.902344 242.753906 C 35.902344 243.378906 36.414062 243.898438 37.050781 243.898438 L 82.351562 243.898438 C 82.988281 243.898438 83.5 243.378906 83.5 242.753906 L 83.5 238.625 C 83.5 238 82.988281 237.480469 82.351562 237.480469 " fill-opacity="1" fill-rule="nonzero"/><g fill="#000000" fill-opacity="1"><g transform="translate(124.542518, 181.708442)"><g><path d="M 40.890625 -48.898438 C 40.890625 -49.753906 40.605469 -50.039062 39.816406 -50.039062 L 8.007812 -50.039062 C 7.148438 -50.039062 6.863281 -49.753906 6.863281 -48.898438 L 6.863281 -1.144531 C 6.863281 -0.285156 7.148438 0 8.007812 0 L 39.816406 0 C 40.675781 0 40.890625 -0.285156 40.890625 -1.144531 L 40.890625 -3.789062 C 40.890625 -4.648438 40.675781 -4.933594 39.816406 -4.933594 L 12.511719 -4.933594 L 12.511719 -22.804688 L 38.53125 -22.804688 C 39.390625 -22.804688 39.675781 -23.089844 39.675781 -23.949219 L 39.675781 -26.59375 C 39.675781 -27.449219 39.390625 -27.738281 38.53125 -27.738281 L 12.511719 -27.738281 L 12.511719 -45.109375 L 39.816406 -45.109375 C 40.605469 -45.109375 40.890625 -45.394531 40.890625 -46.25 Z M 40.890625 -48.898438 "/></g></g></g><g fill="#000000" fill-opacity="1"><g transform="translate(169.859224, 181.708442)"><g><path d="M 26.878906 -37.171875 C 16.726562 -37.171875 13.4375 -31.097656 12.007812 -28.09375 L 11.152344 -35.242188 C 10.792969 -36.101562 10.507812 -36.386719 9.9375 -36.386719 L 8.148438 -36.386719 C 7.363281 -36.386719 7.078125 -36.101562 7.078125 -35.242188 L 7.078125 -1.144531 C 7.078125 -0.285156 7.363281 0 8.148438 0 L 11.367188 0 C 12.152344 0 12.4375 -0.285156 12.4375 -1.144531 L 12.4375 -18.730469 C 12.4375 -25.378906 16.871094 -31.882812 26.164062 -31.882812 C 27.023438 -31.882812 27.234375 -32.097656 27.449219 -32.957031 L 27.878906 -36.171875 C 28.023438 -36.886719 27.878906 -37.171875 26.878906 -37.171875 Z M 26.878906 -37.171875 "/></g></g></g><g fill="#000000" fill-opacity="1"><g transform="translate(199.450897, 181.708442)"><g><path d="M 34.386719 0 C 35.171875 0 35.457031 -0.285156 35.457031 -1.144531 L 35.457031 -20.015625 C 35.457031 -31.8125 32.167969 -37.171875 20.160156 -37.171875 C 14.65625 -37.171875 8.722656 -36.101562 7.863281 -35.886719 C 7.003906 -35.601562 6.792969 -35.242188 7.003906 -34.457031 L 7.578125 -32.3125 C 7.71875 -31.597656 7.933594 -31.238281 8.507812 -31.238281 C 8.578125 -31.238281 8.792969 -31.238281 8.9375 -31.3125 C 11.652344 -31.8125 15.371094 -32.453125 19.945312 -32.453125 C 27.449219 -32.453125 30.097656 -29.167969 30.097656 -20.160156 C 26.449219 -21.660156 22.304688 -22.660156 18.515625 -22.660156 C 9.722656 -22.660156 3.859375 -18.871094 3.859375 -11.082031 C 3.859375 -3.429688 9.722656 0.785156 16.585938 0.785156 C 24.304688 0.785156 29.023438 -3.359375 30.953125 -6.003906 L 31.238281 -1.144531 C 31.453125 -0.285156 31.738281 0 32.3125 0 Z M 19.585938 -18.65625 C 23.660156 -18.65625 26.449219 -17.585938 30.097656 -16.085938 L 30.097656 -10.152344 C 27.808594 -6.792969 23.160156 -3.429688 18.230469 -3.429688 C 12.4375 -3.429688 9.222656 -6.648438 9.222656 -11.082031 C 9.222656 -15.941406 12.796875 -18.65625 19.585938 -18.65625 Z M 19.585938 -18.65625 "/></g></g></g><g fill="#000000" fill-opacity="1"><g transform="translate(239.978614, 181.708442)"><g><path d="M 7.078125 -1.144531 C 7.078125 -0.285156 7.363281 0 8.148438 0 L 11.367188 0 C 12.152344 0 12.4375 -0.285156 12.4375 -1.144531 L 12.4375 -19.160156 C 12.4375 -26.308594 16.441406 -32.3125 22.660156 -32.3125 C 28.453125 -32.3125 32.742188 -28.164062 32.742188 -19.660156 L 32.742188 -1.144531 C 32.742188 -0.285156 33.027344 0 33.8125 0 L 37.03125 0 C 37.816406 0 38.101562 -0.285156 38.101562 -1.144531 L 38.101562 -21.089844 C 38.101562 -32.527344 31.597656 -37.171875 23.949219 -37.171875 C 16.941406 -37.171875 13.226562 -31.667969 11.722656 -28.808594 L 11.152344 -35.242188 C 10.792969 -36.101562 10.507812 -36.386719 9.9375 -36.386719 L 8.148438 -36.386719 C 7.363281 -36.386719 7.078125 -36.101562 7.078125 -35.242188 Z M 7.078125 -1.144531 "/></g></g></g><g fill="#000000" fill-opacity="1"><g transform="translate(280.519024, 190.094349)"><g><path d="M 75.558594 -38.457031 C 75.054688 -38.851562 74.617188 -39 74.121094 -38.867188 C 73.75 -38.769531 73.445312 -38.421875 73.175781 -37.949219 C 68.867188 -30.300781 61.183594 -22.402344 49.066406 -19.148438 C 29.039062 -13.765625 8.085938 -27.621094 2.839844 -47.152344 C -2.375 -66.5625 8.78125 -89.175781 28.808594 -94.558594 C 40.921875 -97.8125 51.65625 -94.863281 58.65625 -90.515625 C 59.25 -90.277344 59.6875 -90.128906 60.183594 -90.261719 C 60.550781 -90.359375 60.980469 -90.742188 61.25 -91.210938 L 63.320312 -95.347656 C 63.953125 -96.445312 63.789062 -97.0625 62.691406 -97.695312 C 52.652344 -103.480469 38.871094 -104.949219 26.882812 -101.726562 C 2.527344 -95.183594 -11.929688 -69.5625 -5.320312 -44.960938 C 1.289062 -20.359375 26.640625 -5.433594 50.992188 -11.976562 C 62.984375 -15.199219 74.175781 -23.375 79.960938 -33.410156 C 80.683594 -34.667969 80.519531 -35.285156 79.386719 -36.042969 Z M 75.558594 -38.457031 "/></g></g></g><g mask="url(#ebda618487)"><g transform="matrix(1, 0, 0, 1, 288, 118)"><g clip-path="url(#ad24b58472)"><g fill="#54a58a" fill-opacity="1"><g transform="translate(0.746689, 50.953308)"><g><path d="M 20.902344 -34.949219 C 11.089844 -34.949219 3.226562 -26.886719 3.226562 -17.070312 C 3.226562 -7.257812 11.089844 0.738281 20.902344 0.738281 C 30.714844 0.738281 38.582031 -7.257812 38.582031 -17.070312 C 38.582031 -26.886719 30.714844 -34.949219 20.902344 -34.949219 Z M 20.902344 -30.378906 C 27.960938 -30.378906 33.605469 -24.464844 33.605469 -17.070312 C 33.605469 -9.679688 27.960938 -3.765625 20.902344 -3.765625 C 13.914062 -3.765625 8.265625 -9.679688 8.265625 -17.070312 C 8.265625 -24.464844 13.914062 -30.378906 20.902344 -30.378906 Z M 20.902344 -30.378906 "/></g></g></g></g></g></g><g mask="url(#592244209d)"><g transform="matrix(1, 0, 0, 1, 296, 120)"><g clip-path="url(#459ba25385)"><g fill="#54a58a" fill-opacity="1"><g transform="translate(1.45986, 50.610959)"><g><path d="M 20.902344 -34.949219 C 11.089844 -34.949219 3.226562 -26.886719 3.226562 -17.070312 C 3.226562 -7.257812 11.089844 0.738281 20.902344 0.738281 C 30.714844 0.738281 38.582031 -7.257812 38.582031 -17.070312 C 38.582031 -26.886719 30.714844 -34.949219 20.902344 -34.949219 Z M 20.902344 -30.378906 C 27.960938 -30.378906 33.605469 -24.464844 33.605469 -17.070312 C 33.605469 -9.679688 27.960938 -3.765625 20.902344 -3.765625 C 13.914062 -3.765625 8.265625 -9.679688 8.265625 -17.070312 C 8.265625 -24.464844 13.914062 -30.378906 20.902344 -30.378906 Z M 20.902344 -30.378906 "/></g></g></g></g></g></g><g mask="url(#c3619abd84)"><g transform="matrix(1, 0, 0, 1, 305, 120)"><g clip-path="url(#acb4a189a2)"><g fill="#54a58a" fill-opacity="1"><g transform="translate(1.316792, 50.59914)"><g><path d="M 20.902344 -34.949219 C 11.089844 -34.949219 3.226562 -26.886719 3.226562 -17.070312 C 3.226562 -7.257812 11.089844 0.738281 20.902344 0.738281 C 30.714844 0.738281 38.582031 -7.257812 38.582031 -17.070312 C 38.582031 -26.886719 30.714844 -34.949219 20.902344 -34.949219 Z M 20.902344 -30.378906 C 27.960938 -30.378906 33.605469 -24.464844 33.605469 -17.070312 C 33.605469 -9.679688 27.960938 -3.765625 20.902344 -3.765625 C 13.914062 -3.765625 8.265625 -9.679688 8.265625 -17.070312 C 8.265625 -24.464844 13.914062 -30.378906 20.902344 -30.378906 Z M 20.902344 -30.378906 "/></g></g></g></g></g></g><g fill="#54a58a" fill-opacity="1"><g transform="translate(313.842211, 166.05847)"><g><path d="M 20.902344 -34.949219 C 11.089844 -34.949219 3.226562 -26.886719 3.226562 -17.070312 C 3.226562 -7.257812 11.089844 0.738281 20.902344 0.738281 C 30.714844 0.738281 38.582031 -7.257812 38.582031 -17.070312 C 38.582031 -26.886719 30.714844 -34.949219 20.902344 -34.949219 Z M 20.902344 -30.378906 C 27.960938 -30.378906 33.605469 -24.464844 33.605469 -17.070312 C 33.605469 -9.679688 27.960938 -3.765625 20.902344 -3.765625 C 13.914062 -3.765625 8.265625 -9.679688 8.265625 -17.070312 C 8.265625 -24.464844 13.914062 -30.378906 20.902344 -30.378906 Z M 20.902344 -30.378906 "/></g></g></g></svg>